<svg width="612.001" height="612.001" xmlns="http://www.w3.org/2000/svg" xml:space="preserve" version="1.1">

 <g>
  <title>Layer 1</title>
  <g id="svg_1">
   <g id="svg_2">
    <path fill="#fce988" id="svg_3" d="m306,149.341c-86.382,0 -156.661,70.278 -156.661,156.661c0,86.382 70.278,156.66 156.661,156.66s156.66,-70.278 156.66,-156.66c0,-86.384 -70.278,-156.661 -156.66,-156.661z"/>
    <path fill="#fce988" id="svg_4" d="m274.194,117.278l63.612,0c5.032,0 9.356,-2.101 11.863,-5.763c2.508,-3.662 2.9,-8.453 1.079,-13.146l-34.999,-90.112c-2.789,-7.184 -7.305,-8.256 -9.749,-8.256s-6.96,1.073 -9.749,8.255l-35,90.114c-1.821,4.692 -1.427,9.482 1.079,13.145c2.507,3.663 6.832,5.763 11.864,5.763z"/>
    <path fill="#fce988" id="svg_5" d="m337.806,494.723l-63.612,0c-5.032,0 -9.357,2.102 -11.863,5.764c-2.506,3.663 -2.9,8.453 -1.079,13.145l34.999,90.114c2.789,7.182 7.305,8.254 9.749,8.254c2.444,0 6.96,-1.072 9.749,-8.254l34.999,-90.115c1.821,-4.69 1.429,-9.48 -1.079,-13.144c-2.507,-3.662 -6.831,-5.764 -11.863,-5.764z"/>
    <path fill="#fce988" id="svg_6" d="m127.54,190.824c2.412,5.477 7.028,8.746 12.348,8.746c3.644,0 7.257,-1.608 10.174,-4.526l44.981,-44.98c3.558,-3.558 5.13,-8.102 4.312,-12.466c-0.819,-4.362 -3.928,-8.028 -8.532,-10.056l-88.467,-38.973c-2.233,-0.983 -4.336,-1.482 -6.25,-1.482c-3.201,0 -5.959,1.415 -7.568,3.882c-1.357,2.081 -2.454,5.747 0.031,11.389l38.971,88.466z"/>
    <path fill="#fce988" id="svg_7" d="m484.46,421.178c-2.412,-5.477 -7.027,-8.746 -12.346,-8.746c-3.645,0 -7.259,1.609 -10.177,4.527l-44.981,44.98c-3.558,3.559 -5.13,8.104 -4.312,12.466c0.818,4.362 3.929,8.028 8.532,10.055l88.466,38.974c2.233,0.983 4.336,1.482 6.25,1.482c3.201,0 5.959,-1.417 7.568,-3.882c1.358,-2.083 2.455,-5.748 -0.03,-11.389l-38.97,-88.467z"/>
    <path fill="#fce988" id="svg_8" d="m461.937,195.044c2.918,2.918 6.532,4.526 10.176,4.526c5.319,0 9.934,-3.269 12.348,-8.746l38.972,-88.465c2.486,-5.643 1.389,-9.308 0.031,-11.389c-1.609,-2.467 -4.367,-3.882 -7.568,-3.882c-1.914,0 -4.017,0.499 -6.251,1.483l-88.466,38.97c-4.604,2.029 -7.715,5.694 -8.532,10.057c-0.818,4.363 0.754,8.908 4.312,12.466l44.978,44.98z"/>
    <path fill="#fce988" id="svg_9" d="m150.063,416.959c-2.918,-2.918 -6.532,-4.527 -10.177,-4.527c-5.319,0 -9.934,3.269 -12.346,8.746l-38.972,88.465c-2.486,5.643 -1.389,9.308 -0.031,11.39c1.609,2.466 4.368,3.882 7.568,3.882c1.914,0 4.017,-0.499 6.251,-1.484l88.466,-38.972c4.604,-2.028 7.715,-5.694 8.532,-10.056c0.818,-4.362 -0.753,-8.907 -4.312,-12.466l-44.979,-44.978z"/>
    <path fill="#fce988" id="svg_10" d="m603.745,296.251l-90.111,-34.996c-1.942,-0.755 -3.896,-1.137 -5.806,-1.137c-7.593,0 -13.104,5.921 -13.104,14.078l0.001,63.613c0,8.157 5.511,14.078 13.104,14.078c1.912,0 3.866,-0.382 5.806,-1.136l90.112,-34.999c7.182,-2.79 8.254,-7.306 8.254,-9.751c0,-2.443 -1.075,-6.961 -8.256,-9.75z"/>
    <path fill="#fce988" id="svg_11" d="m104.173,351.886c7.594,0 13.106,-5.921 13.106,-14.078l0,-63.613c0,-8.157 -5.511,-14.078 -13.106,-14.078c-1.912,0 -3.864,0.382 -5.805,1.136l-90.113,34.998c-7.182,2.789 -8.255,7.305 -8.255,9.75c0,2.444 1.072,6.96 8.255,9.752l90.111,34.996c1.942,0.754 3.895,1.137 5.807,1.137z"/>
   </g>
  </g>
  <g id="svg_12"/>
  <g id="svg_13"/>
  <g id="svg_14"/>
  <g id="svg_15"/>
  <g id="svg_16"/>
  <g id="svg_17"/>
  <g id="svg_18"/>
  <g id="svg_19"/>
  <g id="svg_20"/>
  <g id="svg_21"/>
  <g id="svg_22"/>
  <g id="svg_23"/>
  <g id="svg_24"/>
  <g id="svg_25"/>
  <g id="svg_26"/>
 </g>
</svg>